<?xml version="1.0" encoding="utf-8"?>
<!-- Generator: Adobe Illustrator 18.1.1, SVG Export Plug-In . SVG Version: 6.00 Build 0)  -->
<svg version="1.1" id="Layer_1" xmlns="http://www.w3.org/2000/svg" xmlns:xlink="http://www.w3.org/1999/xlink" x="0px" y="0px"
	 viewBox="0 0 185.1 36.4" enable-background="new 0 0 185.1 36.4" xml:space="preserve">
<g>
	<g>
		<g>
			<g>
				<g>
					<path fill="#FBB416" d="M42.6,0.9V0.7h8.5v0.2h-0.2c-0.6,0-1.2,0.2-1.8,0.5c-0.6,0.3-1.2,0.7-1.8,1.2c-0.6,0.5-1.2,1.1-1.8,1.7
						c-0.6,0.6-1.2,1.3-1.8,1.9l-6.5,7.6l13.1,21.7h2.6v0.1H42.3v-0.1h3.4L34.6,17L30.4,22v13.5h3.1v0.1H23.2v-0.1h3.1V0.9h-3.1V0.7
						h10.3v0.2h-3.1v20.8L43.7,6.1c0.6-0.7,1.1-1.3,1.4-2c0.3-0.6,0.5-1.2,0.5-1.7c0-0.5-0.2-0.9-0.7-1.2S43.8,0.9,43,0.9H42.6z"/>
				</g>
				<g>
					<path fill="none" stroke="#FBB416" stroke-width="0.5" stroke-miterlimit="10" d="M42.6,0.9V0.7h8.5v0.2h-0.2
						c-0.6,0-1.2,0.2-1.8,0.5c-0.6,0.3-1.2,0.7-1.8,1.2c-0.6,0.5-1.2,1.1-1.8,1.7c-0.6,0.6-1.2,1.3-1.8,1.9l-6.5,7.6l13.1,21.7h2.6
						v0.1H42.3v-0.1h3.4L34.6,17L30.4,22v13.5h3.1v0.1H23.2v-0.1h3.1V0.9h-3.1V0.7h10.3v0.2h-3.1v20.8L43.7,6.1
						c0.6-0.7,1.1-1.3,1.4-2c0.3-0.6,0.5-1.2,0.5-1.7c0-0.5-0.2-0.9-0.7-1.2S43.8,0.9,43,0.9H42.6z"/>
				</g>
			</g>
			<path fill="#343434" stroke="#343434" stroke-width="0.5" stroke-miterlimit="10" d="M60.5,33.4c0,0.4-0.1,0.7-0.2,1
				c-0.1,0.3-0.3,0.6-0.5,0.8c-0.2,0.2-0.5,0.4-0.8,0.5c-0.3,0.1-0.6,0.2-1,0.2c-0.7,0-1.3-0.2-1.7-0.7c-0.4-0.5-0.7-1.1-0.7-1.8
				c0-0.8,0.2-1.4,0.7-1.9c0.5-0.5,1-0.7,1.7-0.7c0.7,0,1.3,0.2,1.8,0.7C60.3,32,60.5,32.6,60.5,33.4z"/>
			<path fill="#343434" stroke="#343434" stroke-width="0.5" stroke-miterlimit="10" d="M73.8,35.5v0.1H63.5v-0.1h3.1V0.9h-3.1V0.7
				h23.6v8.7H87c-0.3-1.5-0.6-2.8-1-3.9c-0.4-1.1-0.9-2-1.6-2.6c-0.7-0.7-1.5-1.2-2.5-1.5c-1-0.3-2.2-0.5-3.7-0.5h-7.5v17.5h4.8
				c1.1,0,2.1-0.1,2.9-0.4c0.8-0.2,1.5-0.6,2-1c0.5-0.5,0.9-1,1.2-1.7c0.3-0.7,0.5-1.4,0.6-2.3h0.1V24h-0.1
				c-0.1-0.9-0.3-1.6-0.6-2.3c-0.3-0.7-0.7-1.2-1.2-1.7c-0.5-0.5-1.2-0.8-2-1c-0.8-0.2-1.8-0.4-2.9-0.4h-4.8v16.9H73.8z"/>
			<path fill="#343434" stroke="#343434" stroke-width="0.5" stroke-miterlimit="10" d="M103.9,0.2c2.6,0,4.9,0.4,6.9,1.3
				c2,0.9,3.7,2.1,5,3.7s2.4,3.4,3.1,5.6c0.7,2.2,1,4.5,1,7.1c0,1.7-0.2,3.4-0.5,4.9c-0.4,1.6-0.9,3-1.5,4.4
				c-0.7,1.3-1.5,2.6-2.4,3.7c-0.9,1.1-2,2-3.2,2.8c-1.2,0.8-2.5,1.4-3.9,1.8c-1.4,0.4-2.9,0.6-4.5,0.6c-2.6,0-4.9-0.4-6.9-1.3
				c-2-0.9-3.7-2.1-5-3.7c-1.4-1.6-2.4-3.5-3.1-5.6c-0.7-2.2-1-4.5-1-7.1c0-1.7,0.2-3.4,0.5-4.9c0.4-1.6,0.9-3,1.5-4.4
				c0.7-1.3,1.5-2.6,2.4-3.6c0.9-1.1,2-2,3.2-2.8c1.2-0.8,2.5-1.4,3.9-1.8C100.9,0.5,102.4,0.2,103.9,0.2z M103.9,35.9
				c2.1,0,3.8-0.5,5.3-1.4s2.6-2.2,3.6-3.8c0.9-1.6,1.6-3.5,2-5.6c0.4-2.1,0.6-4.4,0.6-6.9c0-2.4-0.2-4.6-0.7-6.7s-1.2-4-2.1-5.7
				c-0.9-1.6-2.1-3-3.6-3.9c-1.4-1-3.1-1.5-5.1-1.5c-2.1,0-3.8,0.5-5.3,1.4S96,4,95.1,5.6c-0.9,1.6-1.6,3.5-2,5.6
				c-0.4,2.1-0.6,4.4-0.6,6.9c0,2.4,0.2,4.6,0.7,6.8c0.5,2.2,1.2,4.1,2.1,5.7c0.9,1.6,2.1,3,3.6,3.9
				C100.2,35.5,101.9,35.9,103.9,35.9z"/>
			<path fill="#343434" stroke="#343434" stroke-width="0.5" stroke-miterlimit="10" d="M138,0.2c2.6,0,4.9,0.4,6.9,1.3
				c2,0.9,3.7,2.1,5,3.7s2.4,3.4,3.1,5.6c0.7,2.2,1,4.5,1,7.1c0,1.7-0.2,3.4-0.5,4.9c-0.4,1.6-0.9,3-1.5,4.4
				c-0.7,1.3-1.5,2.6-2.4,3.7c-0.9,1.1-2,2-3.2,2.8s-2.5,1.4-3.9,1.8s-2.9,0.6-4.5,0.6c-2.6,0-4.9-0.4-6.9-1.3c-2-0.9-3.7-2.1-5-3.7
				c-1.4-1.6-2.4-3.5-3.1-5.6c-0.7-2.2-1-4.5-1-7.1c0-1.7,0.2-3.4,0.5-4.9c0.4-1.6,0.9-3,1.5-4.4c0.7-1.3,1.5-2.6,2.4-3.6
				c0.9-1.1,2-2,3.2-2.8s2.5-1.4,3.9-1.8C135,0.5,136.5,0.2,138,0.2z M138,35.9c2.1,0,3.8-0.5,5.3-1.4s2.6-2.2,3.6-3.8
				s1.6-3.5,2-5.6c0.4-2.1,0.6-4.4,0.6-6.9c0-2.4-0.2-4.6-0.7-6.7s-1.2-4-2.1-5.7c-0.9-1.6-2.1-3-3.6-3.9c-1.4-1-3.1-1.5-5.1-1.5
				c-2.1,0-3.8,0.5-5.3,1.4s-2.6,2.2-3.6,3.8c-0.9,1.6-1.6,3.5-2,5.6c-0.4,2.1-0.6,4.4-0.6,6.9c0,2.4,0.2,4.6,0.7,6.8
				c0.5,2.2,1.2,4.1,2.1,5.7c0.9,1.6,2.1,3,3.6,3.9C134.4,35.5,136.1,35.9,138,35.9z"/>
			<path fill="#343434" stroke="#343434" stroke-width="0.5" stroke-miterlimit="10" d="M168.2,0.7c2.6,0,4.9,0.4,7,1.3
				c2.1,0.8,3.8,2,5.3,3.5c1.4,1.5,2.5,3.3,3.3,5.5c0.8,2.1,1.1,4.4,1.1,7c0,2.6-0.4,4.9-1.3,7.1s-2,4-3.5,5.6s-3.3,2.8-5.3,3.6
				c-2,0.9-4.2,1.3-6.6,1.3h-12.5v-0.1h3.1V0.9h-3.1V0.7H168.2z M162.9,0.9v34.6h4.9c2.1,0,3.9-0.4,5.5-1.3s2.9-2.1,3.9-3.6
				c1-1.5,1.8-3.4,2.4-5.5c0.5-2.1,0.8-4.4,0.8-6.8c0-2.4-0.3-4.6-0.9-6.7c-0.6-2.1-1.4-4-2.5-5.5c-1.1-1.6-2.4-2.8-4-3.8
				c-1.6-0.9-3.3-1.4-5.3-1.4H162.9z"/>
		</g>
	</g>
	<rect x="0" y="16.1" fill="#343434" width="20" height="20"/>
	<g>
		<path fill="#FFFFFF" d="M5.3,24.4v4.5H4v-4.5H2.4v-1.1h4.4v1.1H5.3z"/>
		<path fill="#FFFFFF" d="M11,23.3h1.2v5.6H11v-2.2H8.8v2.2H7.6v-5.6h1.2v2.3H11V23.3z"/>
		<path fill="#FFFFFF" d="M17.5,23.3v1.1h-2.8v1.2h2.5v1.1h-2.5v1.2h2.9v1.1h-4.1v-5.6H17.5z"/>
	</g>
</g>
</svg>
